<svg width="22" height="22" viewBox="0 0 22 22" fill="none" xmlns="http://www.w3.org/2000/svg">
<path d="M6.49761 0.00537109H15.6489C19.1352 0.00537109 21.9677 2.83793 21.9677 6.32415V15.4755C21.9677 17.1513 21.302 18.7585 20.117 19.9435C18.932 21.1285 17.3248 21.7943 15.6489 21.7943H6.49761C3.01139 21.7943 0.178833 18.9617 0.178833 15.4755V6.32415C0.178833 4.6483 0.84456 3.0411 2.02956 1.8561C3.21456 0.671098 4.82177 0.00537109 6.49761 0.00537109ZM6.27972 2.18426C5.23954 2.18426 4.24197 2.59747 3.50645 3.33299C2.77093 4.0685 2.35772 5.06608 2.35772 6.10626V15.6934C2.35772 17.8614 4.11173 19.6154 6.27972 19.6154H15.8668C16.907 19.6154 17.9046 19.2022 18.6401 18.4666C19.3756 17.7311 19.7888 16.7335 19.7888 15.6934V6.10626C19.7888 3.93827 18.0348 2.18426 15.8668 2.18426H6.27972ZM16.7929 3.81843C17.154 3.81843 17.5004 3.9619 17.7558 4.21729C18.0112 4.47268 18.1547 4.81906 18.1547 5.18023C18.1547 5.54141 18.0112 5.88779 17.7558 6.14317C17.5004 6.39856 17.154 6.54204 16.7929 6.54204C16.4317 6.54204 16.0853 6.39856 15.8299 6.14317C15.5745 5.88779 15.4311 5.54141 15.4311 5.18023C15.4311 4.81906 15.5745 4.47268 15.8299 4.21729C16.0853 3.9619 16.4317 3.81843 16.7929 3.81843ZM11.0733 5.45259C12.518 5.45259 13.9035 6.02649 14.925 7.04805C15.9466 8.0696 16.5205 9.45512 16.5205 10.8998C16.5205 12.3445 15.9466 13.73 14.925 14.7516C13.9035 15.7731 12.518 16.347 11.0733 16.347C9.62858 16.347 8.24306 15.7731 7.22151 14.7516C6.19996 13.73 5.62605 12.3445 5.62605 10.8998C5.62605 9.45512 6.19996 8.0696 7.22151 7.04805C8.24306 6.02649 9.62858 5.45259 11.0733 5.45259ZM11.0733 7.63148C10.2065 7.63148 9.37515 7.97582 8.76222 8.58875C8.14928 9.20169 7.80494 10.033 7.80494 10.8998C7.80494 11.7666 8.14928 12.5979 8.76222 13.2109C9.37515 13.8238 10.2065 14.1681 11.0733 14.1681C11.9401 14.1681 12.7714 13.8238 13.3843 13.2109C13.9973 12.5979 14.3416 11.7666 14.3416 10.8998C14.3416 10.033 13.9973 9.20169 13.3843 8.58875C12.7714 7.97582 11.9401 7.63148 11.0733 7.63148Z" fill="#3D3D3D"/>
</svg>
