<svg width="22" height="22" viewBox="0 0 22 22" fill="none" xmlns="http://www.w3.org/2000/svg">
<path d="M10.9767 0.00537109C4.96293 0.00537109 0.0822144 4.88608 0.0822144 10.8998C0.0822144 16.9135 4.96293 21.7943 10.9767 21.7943C16.9904 21.7943 21.8711 16.9135 21.8711 10.8998C21.8711 4.88608 16.9904 0.00537109 10.9767 0.00537109ZM16.0317 7.41359C15.8683 9.13492 15.1601 13.3184 14.8006 15.2467C14.6481 16.0638 14.343 16.3361 14.0598 16.3688C13.4279 16.4233 12.9486 15.9548 12.3385 15.5517C11.3798 14.9199 10.835 14.5277 9.909 13.9176C8.83045 13.2094 9.5277 12.8172 10.1487 12.1854C10.3121 12.0219 13.1011 9.48354 13.1555 9.25475C13.1631 9.2201 13.1621 9.18413 13.1526 9.14995C13.1431 9.11578 13.1254 9.08444 13.1011 9.05865C13.0357 9.00418 12.9486 9.02597 12.8723 9.03687C12.7742 9.05865 11.249 10.0718 8.27484 12.0764C7.83906 12.3706 7.44686 12.5231 7.09824 12.5122C6.70604 12.5013 5.96521 12.2943 5.4096 12.1091C4.72325 11.8912 4.18942 11.7714 4.233 11.3901C4.25479 11.194 4.52715 10.9979 5.03919 10.7909C8.22036 9.40728 10.3339 8.49214 11.3906 8.05637C14.4193 6.79261 15.0403 6.57472 15.4543 6.57472C15.5414 6.57472 15.7484 6.59651 15.8792 6.70545C15.9881 6.79261 16.0208 6.91245 16.0317 6.9996C16.0208 7.06497 16.0426 7.26107 16.0317 7.41359Z" fill="#3D3D3D"/>
</svg>
 