<svg width="22" height="23" viewBox="0 0 22 23" fill="none" xmlns="http://www.w3.org/2000/svg">
<path d="M11.0086 0.937988C4.95475 0.937988 0.0460815 5.84666 0.0460815 11.9005C0.0460815 17.9544 4.95475 22.8631 11.0086 22.8631C17.0625 22.8631 21.9712 17.9544 21.9712 11.9005C21.9712 5.84666 17.0625 0.937988 11.0086 0.937988ZM16.277 9.20149C16.2843 9.3165 16.2843 9.4364 16.2843 9.55386C16.2843 13.146 13.5486 17.2839 8.54939 17.2839C7.00778 17.2839 5.57874 16.8361 4.37481 16.0653C4.59504 16.0898 4.80549 16.0996 5.03061 16.0996C6.30305 16.0996 7.47271 15.6689 8.40501 14.9397C7.21088 14.9152 6.20761 14.1322 5.86503 13.0555C6.28347 13.1167 6.66031 13.1167 7.09098 13.0066C6.47611 12.8816 5.92346 12.5477 5.5269 12.0615C5.13034 11.5753 4.91434 10.9668 4.9156 10.3393V10.3051C5.27531 10.5082 5.69864 10.633 6.14154 10.6501C5.76922 10.402 5.46387 10.0658 5.25258 9.67138C5.04129 9.27698 4.93058 8.83652 4.93028 8.38909C4.93028 7.88256 5.06242 7.42008 5.29978 7.01877C5.98225 7.85891 6.83387 8.54604 7.7993 9.0355C8.76472 9.52495 9.82233 9.80578 10.9034 9.85973C10.5192 8.01225 11.8993 6.51714 13.5584 6.51714C14.3414 6.51714 15.0462 6.84503 15.5429 7.37358C16.1571 7.25857 16.7444 7.02856 17.268 6.72024C17.0649 7.34911 16.6392 7.88011 16.0739 8.21535C16.622 8.15662 17.1506 8.00491 17.64 7.79202C17.2705 8.33525 16.808 8.81731 16.277 9.20149Z" fill="#3D3D3D"/>
</svg>
