<svg width="40" height="40" viewBox="0 0 40 40" fill="none" xmlns="http://www.w3.org/2000/svg">
<g opacity="0.21">
<path d="M8.33334 35L8.33334 5.00001C8.33429 4.69627 8.41807 4.39855 8.57564 4.13888C8.73321 3.87921 8.95862 3.66744 9.2276 3.52635C9.49658 3.38526 9.79894 3.3202 10.1021 3.33817C10.4054 3.35614 10.6979 3.45647 10.9483 3.62834L32.615 18.6283C33.5133 19.25 33.5133 20.7467 32.615 21.37L10.9483 36.37C10.6984 36.5436 10.4057 36.6455 10.102 36.6644C9.79831 36.6833 9.49521 36.6187 9.22566 36.4775C8.95611 36.3363 8.73042 36.1239 8.5731 35.8634C8.41578 35.6029 8.33286 35.3043 8.33334 35Z" fill="#B3B3B3"/>
</g>
</svg>
