<svg width="40" height="40" viewBox="0 0 40 40" fill="none" xmlns="http://www.w3.org/2000/svg">
<g opacity="0.21">
<path d="M31.6667 35L31.6667 5.00001C31.6657 4.69627 31.5819 4.39855 31.4244 4.13888C31.2668 3.87921 31.0414 3.66744 30.7724 3.52635C30.5034 3.38526 30.2011 3.3202 29.8979 3.33817C29.5946 3.35614 29.3021 3.45647 29.0517 3.62834L7.38499 18.6283C6.48666 19.25 6.48666 20.7467 7.38499 21.37L29.0517 36.37C29.3016 36.5436 29.5943 36.6455 29.898 36.6644C30.2017 36.6833 30.5048 36.6187 30.7743 36.4775C31.0439 36.3363 31.2696 36.1239 31.4269 35.8634C31.5842 35.6029 31.6671 35.3043 31.6667 35Z" fill="#D2D2D2"/>
</g>
</svg>
